<mxfile host="app.diagrams.net" modified="2020-12-15T00:56:47.485Z" agent="5.0 (X11)" etag="etr_W2es6IVm0eDa1U2x" version="14.0.1" type="github">
  <diagram id="C5RBs43oDa-KdzZeNtuy" name="Page-1">
    <mxGraphModel dx="980" dy="624" grid="1" gridSize="10" guides="1" tooltips="1" connect="1" arrows="1" fold="1" page="1" pageScale="1" pageWidth="827" pageHeight="1169" background="#114B5F" math="0" shadow="0">
      <root>
        <mxCell id="WIyWlLk6GJQsqaUBKTNV-0" />
        <mxCell id="WIyWlLk6GJQsqaUBKTNV-1" parent="WIyWlLk6GJQsqaUBKTNV-0" />
        <mxCell id="8_meCPIbu4Qrz7UokVkX-44" value="Print_Edition&#xa;" style="swimlane;fontStyle=1;align=center;verticalAlign=top;childLayout=stackLayout;horizontal=1;startSize=26;horizontalStack=0;resizeParent=1;resizeParentMax=0;resizeLast=0;collapsible=1;marginBottom=0;rounded=0;labelBackgroundColor=none;sketch=0;strokeColor=#028090;fontColor=#E4FDE1;html=0;fillColor=none;" vertex="1" parent="WIyWlLk6GJQsqaUBKTNV-1">
          <mxGeometry x="249" y="690" width="330" height="140" as="geometry" />
        </mxCell>
        <object label="+header_book:string&#xa;+amount_pages:int&#xa;" amount_pages="" id="8_meCPIbu4Qrz7UokVkX-45">
          <mxCell style="text;strokeColor=none;fillColor=none;align=left;verticalAlign=top;spacingLeft=4;spacingRight=4;overflow=hidden;rotatable=0;points=[[0,0.5],[1,0.5]];portConstraint=eastwest;fontColor=#E4FDE1;" vertex="1" parent="8_meCPIbu4Qrz7UokVkX-44">
            <mxGeometry y="26" width="330" height="54" as="geometry" />
          </mxCell>
        </object>
        <mxCell id="8_meCPIbu4Qrz7UokVkX-46" value="" style="line;strokeWidth=1;fillColor=none;align=left;verticalAlign=middle;spacingTop=-1;spacingLeft=3;spacingRight=3;rotatable=0;labelPosition=right;points=[];portConstraint=eastwest;labelBackgroundColor=#114B5F;strokeColor=#028090;fontColor=#E4FDE1;" vertex="1" parent="8_meCPIbu4Qrz7UokVkX-44">
          <mxGeometry y="80" width="330" height="8" as="geometry" />
        </mxCell>
        <mxCell id="8_meCPIbu4Qrz7UokVkX-47" value="+ get_header_book()&#xa;+ get_amount_pages() : void&#xa;" style="text;strokeColor=none;fillColor=none;align=left;verticalAlign=top;spacingLeft=4;spacingRight=4;overflow=hidden;rotatable=0;points=[[0,0.5],[1,0.5]];portConstraint=eastwest;fontColor=#E4FDE1;" vertex="1" parent="8_meCPIbu4Qrz7UokVkX-44">
          <mxGeometry y="88" width="330" height="52" as="geometry" />
        </mxCell>
        <mxCell id="8_meCPIbu4Qrz7UokVkX-48" value="Book&#xa;" style="swimlane;fontStyle=1;align=center;verticalAlign=top;childLayout=stackLayout;horizontal=1;startSize=26;horizontalStack=0;resizeParent=1;resizeParentMax=0;resizeLast=0;collapsible=1;marginBottom=0;rounded=0;labelBackgroundColor=none;sketch=0;strokeColor=#028090;fillColor=none;fontColor=#E4FDE1;html=0;" vertex="1" parent="WIyWlLk6GJQsqaUBKTNV-1">
          <mxGeometry x="59" y="506" width="190" height="100" as="geometry" />
        </mxCell>
        <mxCell id="8_meCPIbu4Qrz7UokVkX-49" value="+ has_library:bool&#xa;" style="text;strokeColor=none;fillColor=none;align=left;verticalAlign=top;spacingLeft=4;spacingRight=4;overflow=hidden;rotatable=0;points=[[0,0.5],[1,0.5]];portConstraint=eastwest;fontColor=#E4FDE1;" vertex="1" parent="8_meCPIbu4Qrz7UokVkX-48">
          <mxGeometry y="26" width="190" height="26" as="geometry" />
        </mxCell>
        <mxCell id="8_meCPIbu4Qrz7UokVkX-50" value="" style="line;strokeWidth=1;fillColor=none;align=left;verticalAlign=middle;spacingTop=-1;spacingLeft=3;spacingRight=3;rotatable=0;labelPosition=right;points=[];portConstraint=eastwest;labelBackgroundColor=#114B5F;strokeColor=#028090;fontColor=#E4FDE1;" vertex="1" parent="8_meCPIbu4Qrz7UokVkX-48">
          <mxGeometry y="52" width="190" height="8" as="geometry" />
        </mxCell>
        <mxCell id="8_meCPIbu4Qrz7UokVkX-51" value="+ get_amount_pages():void&#xa;+ get_has_library():void&#xa;&#xa;" style="text;strokeColor=none;fillColor=none;align=left;verticalAlign=top;spacingLeft=4;spacingRight=4;overflow=hidden;rotatable=0;points=[[0,0.5],[1,0.5]];portConstraint=eastwest;fontColor=#E4FDE1;" vertex="1" parent="8_meCPIbu4Qrz7UokVkX-48">
          <mxGeometry y="60" width="190" height="40" as="geometry" />
        </mxCell>
        <mxCell id="8_meCPIbu4Qrz7UokVkX-52" value="Magazine&#xa;" style="swimlane;fontStyle=1;align=center;verticalAlign=top;childLayout=stackLayout;horizontal=1;startSize=30;horizontalStack=0;resizeParent=1;resizeParentMax=0;resizeLast=0;collapsible=1;marginBottom=0;rounded=0;labelBackgroundColor=none;sketch=0;strokeColor=#028090;fillColor=none;fontColor=#E4FDE1;html=0;" vertex="1" parent="WIyWlLk6GJQsqaUBKTNV-1">
          <mxGeometry x="279" y="506" width="270" height="114" as="geometry" />
        </mxCell>
        <mxCell id="8_meCPIbu4Qrz7UokVkX-53" value="+ release_frequency: int" style="text;strokeColor=none;fillColor=none;align=left;verticalAlign=top;spacingLeft=4;spacingRight=4;overflow=hidden;rotatable=0;points=[[0,0.5],[1,0.5]];portConstraint=eastwest;fontColor=#E4FDE1;" vertex="1" parent="8_meCPIbu4Qrz7UokVkX-52">
          <mxGeometry y="30" width="270" height="26" as="geometry" />
        </mxCell>
        <mxCell id="8_meCPIbu4Qrz7UokVkX-54" value="" style="line;strokeWidth=1;fillColor=none;align=left;verticalAlign=middle;spacingTop=-1;spacingLeft=3;spacingRight=3;rotatable=0;labelPosition=right;points=[];portConstraint=eastwest;labelBackgroundColor=#114B5F;strokeColor=#028090;fontColor=#E4FDE1;" vertex="1" parent="8_meCPIbu4Qrz7UokVkX-52">
          <mxGeometry y="56" width="270" height="8" as="geometry" />
        </mxCell>
        <mxCell id="8_meCPIbu4Qrz7UokVkX-55" value="+ get_amount_pages():void&#xa;+ get_frequency():void&#xa;&#xa;" style="text;strokeColor=none;fillColor=none;align=left;verticalAlign=top;spacingLeft=4;spacingRight=4;overflow=hidden;rotatable=0;points=[[0,0.5],[1,0.5]];portConstraint=eastwest;fontColor=#E4FDE1;" vertex="1" parent="8_meCPIbu4Qrz7UokVkX-52">
          <mxGeometry y="64" width="270" height="50" as="geometry" />
        </mxCell>
        <mxCell id="8_meCPIbu4Qrz7UokVkX-57" value="Textbook&#xa;&#xa;&#xa;" style="swimlane;fontStyle=1;align=center;verticalAlign=top;childLayout=stackLayout;horizontal=1;startSize=26;horizontalStack=0;resizeParent=1;resizeParentMax=0;resizeLast=0;collapsible=1;marginBottom=0;rounded=0;labelBackgroundColor=none;sketch=0;strokeColor=#028090;fillColor=none;fontColor=#E4FDE1;html=0;" vertex="1" parent="WIyWlLk6GJQsqaUBKTNV-1">
          <mxGeometry x="560" y="510" width="240" height="110" as="geometry" />
        </mxCell>
        <mxCell id="8_meCPIbu4Qrz7UokVkX-58" value="+ for_what_level:string&#xa;" style="text;strokeColor=none;fillColor=none;align=left;verticalAlign=top;spacingLeft=4;spacingRight=4;overflow=hidden;rotatable=0;points=[[0,0.5],[1,0.5]];portConstraint=eastwest;fontColor=#E4FDE1;" vertex="1" parent="8_meCPIbu4Qrz7UokVkX-57">
          <mxGeometry y="26" width="240" height="26" as="geometry" />
        </mxCell>
        <mxCell id="8_meCPIbu4Qrz7UokVkX-59" value="" style="line;strokeWidth=1;fillColor=none;align=left;verticalAlign=middle;spacingTop=-1;spacingLeft=3;spacingRight=3;rotatable=0;labelPosition=right;points=[];portConstraint=eastwest;labelBackgroundColor=#114B5F;strokeColor=#028090;fontColor=#E4FDE1;" vertex="1" parent="8_meCPIbu4Qrz7UokVkX-57">
          <mxGeometry y="52" width="240" height="8" as="geometry" />
        </mxCell>
        <mxCell id="8_meCPIbu4Qrz7UokVkX-60" value="+ get_amount_pages():void&#xa;+ get_level_textbook():void&#xa;&#xa;" style="text;strokeColor=none;fillColor=none;align=left;verticalAlign=top;spacingLeft=4;spacingRight=4;overflow=hidden;rotatable=0;points=[[0,0.5],[1,0.5]];portConstraint=eastwest;fontColor=#E4FDE1;" vertex="1" parent="8_meCPIbu4Qrz7UokVkX-57">
          <mxGeometry y="60" width="240" height="50" as="geometry" />
        </mxCell>
        <mxCell id="8_meCPIbu4Qrz7UokVkX-61" value="" style="endArrow=block;endSize=16;endFill=0;html=1;strokeColor=#028090;fillColor=#F45B69;fontColor=#E4FDE1;entryX=-0.009;entryY=-0.019;entryDx=0;entryDy=0;entryPerimeter=0;exitX=0.5;exitY=1;exitDx=0;exitDy=0;labelBackgroundColor=#114B5F;" edge="1" parent="WIyWlLk6GJQsqaUBKTNV-1" source="8_meCPIbu4Qrz7UokVkX-48" target="8_meCPIbu4Qrz7UokVkX-47">
          <mxGeometry width="160" relative="1" as="geometry">
            <mxPoint x="130" y="640" as="sourcePoint" />
            <mxPoint x="180" y="780" as="targetPoint" />
            <Array as="points">
              <mxPoint x="190" y="670" />
            </Array>
          </mxGeometry>
        </mxCell>
        <mxCell id="8_meCPIbu4Qrz7UokVkX-63" value="&lt;div&gt;&lt;br&gt;&lt;/div&gt;&lt;div&gt;&lt;br&gt;&lt;/div&gt;&lt;div&gt;&lt;br&gt;&lt;/div&gt;" style="endArrow=block;endSize=16;endFill=0;html=1;strokeColor=#028090;fillColor=#F45B69;fontColor=#E4FDE1;entryX=0.23;entryY=0.007;entryDx=0;entryDy=0;entryPerimeter=0;labelBackgroundColor=#114B5F;" edge="1" parent="WIyWlLk6GJQsqaUBKTNV-1" target="8_meCPIbu4Qrz7UokVkX-44">
          <mxGeometry width="160" relative="1" as="geometry">
            <mxPoint x="380" y="620" as="sourcePoint" />
            <mxPoint x="470" y="590" as="targetPoint" />
          </mxGeometry>
        </mxCell>
        <mxCell id="8_meCPIbu4Qrz7UokVkX-65" value="&lt;div&gt;&lt;br&gt;&lt;/div&gt;&lt;div&gt;&lt;br&gt;&lt;/div&gt;&lt;div&gt;&lt;br&gt;&lt;/div&gt;&lt;div&gt;&lt;br&gt;&lt;/div&gt;" style="endArrow=block;endSize=16;endFill=0;html=1;strokeColor=#028090;fillColor=#F45B69;fontColor=#E4FDE1;entryX=1;entryY=0.907;entryDx=0;entryDy=0;entryPerimeter=0;exitX=0.546;exitY=1;exitDx=0;exitDy=0;exitPerimeter=0;labelBackgroundColor=#114B5F;" edge="1" parent="WIyWlLk6GJQsqaUBKTNV-1" source="8_meCPIbu4Qrz7UokVkX-60" target="8_meCPIbu4Qrz7UokVkX-45">
          <mxGeometry width="160" relative="1" as="geometry">
            <mxPoint x="650" y="650" as="sourcePoint" />
            <mxPoint x="790" y="690" as="targetPoint" />
            <Array as="points">
              <mxPoint x="670" y="700" />
            </Array>
          </mxGeometry>
        </mxCell>
      </root>
    </mxGraphModel>
  </diagram>
</mxfile>
